<?xml version="1.0" encoding="utf-8"?>
<!-- Generator: Adobe Illustrator 23.0.3, SVG Export Plug-In . SVG Version: 6.00 Build 0)  -->
<svg version="1.1" id="Layer_1" xmlns="http://www.w3.org/2000/svg" xmlns:xlink="http://www.w3.org/1999/xlink" x="0px" y="0px"
	 viewBox="0 0 82.5 82.5" style="enable-background:new 0 0 82.5 82.5;" xml:space="preserve">
<style type="text/css">
	.st0{fill:#185C37;}
	.st1{fill:#107C42;}
	.st2{fill:url(#SVGID_1_);}
	.st3{fill:#33C481;}
	.st4{fill:#21A366;}
</style>
<path class="st0" d="M81.6,26.1L24.8,76.3v6.2h12.4c9.6,0,23.5-2.1,33.4-12C87.2,53.8,81.6,26.1,81.6,26.1z"/>
<path class="st1" d="M26.1,81.6c0,0-6.9-26.4,11.1-44.4c18.1-18.1,44.4-11.1,44.4-11.1L26.1,81.6z"/>
<radialGradient id="SVGID_1_" cx="-694.1374" cy="777.6374" r="1" gradientTransform="matrix(49.6011 0 0 -49.6011 34433.9219 38614.1523)" gradientUnits="userSpaceOnUse">
	<stop  offset="0.841" style="stop-color:#000000;stop-opacity:0.2"/>
	<stop  offset="1" style="stop-color:#000000;stop-opacity:0"/>
</radialGradient>
<path class="st2" d="M53.6,43.3c0-5.5-1-10.6-2.5-15.3c-4.8,1.9-9.6,4.8-14,9.1C24.3,50.1,24.1,67.3,25.1,76l-0.4,0.3v6.2h7.7
	C40.4,76.7,53.6,64,53.6,43.3z"/>
<path class="st3" d="M49.5,43.3c0,26.8-24.8,39.2-24.8,39.2V0C24.8,0,49.5,16.5,49.5,43.3z"/>
<path class="st4" d="M24.8,82.5c0,0-24.8-10.3-24.8-39.2S24.8,0,24.8,0V82.5z"/>
</svg>
