<?xml version="1.0" encoding="utf-8"?>
<!-- Generator: Adobe Illustrator 23.0.3, SVG Export Plug-In . SVG Version: 6.00 Build 0)  -->
<svg version="1.1" id="Layer_1" xmlns="http://www.w3.org/2000/svg" xmlns:xlink="http://www.w3.org/1999/xlink" x="0px" y="0px"
	 viewBox="0 0 75 65.6" style="enable-background:new 0 0 75 65.6;" xml:space="preserve">
<style type="text/css">
	.st0{fill:url(#SVGID_1_);}
	.st1{fill:url(#SVGID_2_);}
	.st2{fill:url(#SVGID_3_);}
	.st3{fill:#F6ECA5;}
</style>
<linearGradient id="SVGID_1_" gradientUnits="userSpaceOnUse" x1="37.5" y1="63.9144" x2="37.5" y2="68.9225" gradientTransform="matrix(1 0 0 -1 0 69.5)">
	<stop  offset="0" style="stop-color:#B33F20"/>
	<stop  offset="0.129" style="stop-color:#C74724"/>
	<stop  offset="0.295" style="stop-color:#D94F29"/>
	<stop  offset="0.469" style="stop-color:#E4532B"/>
	<stop  offset="0.659" style="stop-color:#E8552C"/>
</linearGradient>
<path class="st0" d="M45.9,0H29.1c-1.6,0-2.8,1.3-2.8,2.8v2.8h22.5V2.8C48.8,1.3,47.5,0,45.9,0z"/>
<radialGradient id="SVGID_2_" cx="-703.2913" cy="774.5452" r="1" gradientTransform="matrix(85.7625 0 0 -68.9874 60353.2031 53433.8438)" gradientUnits="userSpaceOnUse">
	<stop  offset="0" style="stop-color:#40150B"/>
	<stop  offset="0.156" style="stop-color:#622110"/>
	<stop  offset="0.417" style="stop-color:#953218"/>
	<stop  offset="0.645" style="stop-color:#BA3F1E"/>
	<stop  offset="0.828" style="stop-color:#D14722"/>
	<stop  offset="0.944" style="stop-color:#D94A23"/>
</radialGradient>
<path class="st1" d="M71.3,65.6H3.8c-2.1,0-3.8-1.7-3.8-3.8V13.1C0,9,3.4,5.6,7.5,5.6h60c4.1,0,7.5,3.4,7.5,7.5v48.8
	C75,63.9,73.3,65.6,71.3,65.6z"/>
<linearGradient id="SVGID_3_" gradientUnits="userSpaceOnUse" x1="37.5" y1="63.8225" x2="37.5" y2="30.2619" gradientTransform="matrix(1 0 0 -1 0 69.5)">
	<stop  offset="0" style="stop-color:#FC7D5B"/>
	<stop  offset="6.000000e-02" style="stop-color:#F8734F"/>
	<stop  offset="0.18" style="stop-color:#F3653D"/>
	<stop  offset="0.326" style="stop-color:#F05B31"/>
	<stop  offset="0.523" style="stop-color:#EE552A"/>
	<stop  offset="1" style="stop-color:#ED5328"/>
</linearGradient>
<path class="st2" d="M71.8,36.1l-34.3,5.1L3.2,36.1C1.4,35.8,0,34.3,0,32.4V13.1C0,9,3.4,5.6,7.5,5.6h60c4.1,0,7.5,3.4,7.5,7.5v19.3
	C75,34.3,73.6,35.8,71.8,36.1z"/>
<path class="st3" d="M40.3,28.1h-5.6c-0.5,0-0.9,0.4-0.9,0.9v5.6c0,0.5,0.4,0.9,0.9,0.9h5.6c0.5,0,0.9-0.4,0.9-0.9v-5.6
	C41.3,28.5,40.8,28.1,40.3,28.1z"/>
</svg>
